<svg width="20" height="20" viewBox="0 0 20 20" fill="none" xmlns="http://www.w3.org/2000/svg">
<path d="M14.1636 10.5875C14.1558 9.25552 14.7593 8.25165 15.978 7.51144C15.2964 6.53492 14.2652 5.99783 12.9059 5.89432C11.6188 5.79276 10.2106 6.64429 9.69504 6.64429C9.15014 6.64429 7.9041 5.92947 6.92367 5.92947C4.90031 5.96072 2.75 7.54269 2.75 10.7613C2.75 11.7125 2.92382 12.6948 3.27146 13.7065C3.73629 15.0385 5.41201 18.302 7.15998 18.2493C8.07401 18.2278 8.72047 17.6009 9.90988 17.6009C11.0641 17.6009 11.6618 18.2493 12.6813 18.2493C14.4449 18.2239 15.9604 15.2572 16.4018 13.9214C14.0367 12.8062 14.1636 10.6559 14.1636 10.5875V10.5875ZM12.111 4.6307C13.1012 3.45496 13.0113 2.38469 12.982 1.99994C12.1071 2.05072 11.0954 2.59562 10.5192 3.26552C9.88449 3.98424 9.51145 4.87287 9.59153 5.87479C10.5368 5.94705 11.4001 5.46074 12.111 4.6307V4.6307Z" fill="#A2A1A3"/>
</svg>
