<svg width="20" height="20" viewBox="0 0 20 20" fill="none" xmlns="http://www.w3.org/2000/svg">
<path d="M17.8444 8.4332H17.2V8.4H10V11.6H14.5212C13.8616 13.4628 12.0892 14.8 10 14.8C7.3492 14.8 5.2 12.6508 5.2 10C5.2 7.3492 7.3492 5.2 10 5.2C11.2236 5.2 12.3368 5.6616 13.1844 6.4156L15.4472 4.1528C14.0184 2.8212 12.1072 2 10 2C5.582 2 2 5.582 2 10C2 14.418 5.582 18 10 18C14.418 18 18 14.418 18 10C18 9.4636 17.9448 8.94 17.8444 8.4332Z" fill="#FFC107"/>
<path d="M2.92383 6.2764L5.55223 8.204C6.26343 6.4432 7.98583 5.2 10.0014 5.2C11.225 5.2 12.3382 5.6616 13.1858 6.4156L15.4486 4.1528C14.0198 2.8212 12.1086 2 10.0014 2C6.92863 2 4.26383 3.7348 2.92383 6.2764Z" fill="#FF3D00"/>
<path d="M9.99895 18C12.0654 18 13.943 17.2092 15.3626 15.9232L12.8866 13.828C12.0564 14.4593 11.0419 14.8008 9.99895 14.8C7.91815 14.8 6.15135 13.4732 5.48575 11.6216L2.87695 13.6316C4.20095 16.2224 6.88975 18 9.99895 18Z" fill="#4CAF50"/>
<path d="M17.8444 8.4331H17.2V8.3999H10V11.5999H14.5212C14.2057 12.4865 13.6373 13.2612 12.8864 13.8283L12.8876 13.8275L15.3636 15.9227C15.1884 16.0819 18 13.9999 18 9.9999C18 9.4635 17.9448 8.9399 17.8444 8.4331Z" fill="#1976D2"/>
</svg>
