<svg width="64" height="64" viewBox="0 0 64 64" fill="none" xmlns="http://www.w3.org/2000/svg">
<g filter="url(#filter0_d_212_8365)">
<rect x="8" y="8.00006" width="48" height="48" rx="14" fill="url(#paint0_linear_212_8365)"/>
<rect x="8.5" y="8.50006" width="47" height="47" rx="13.5" stroke="#833BDB"/>
</g>
<path d="M26.0291 25.9989C26.0289 25.554 25.8959 25.1191 25.6469 24.7492C25.3979 24.3793 25.0442 24.0911 24.6304 23.921C24.2165 23.7509 23.7613 23.7065 23.3221 23.7934C22.8829 23.8804 22.4795 24.0948 22.1629 24.4095C21.8463 24.7242 21.6307 25.1251 21.5434 25.5615C21.4561 25.998 21.5011 26.4503 21.6725 26.8614C21.8439 27.2724 22.1342 27.6238 22.5066 27.8709C22.8789 28.1181 23.3167 28.2501 23.7646 28.2501C24.3652 28.2495 24.941 28.0121 25.3656 27.59C25.7902 27.1679 26.0288 26.5957 26.0291 25.9989ZM22.6737 25.9989C22.6739 25.7846 22.7381 25.5752 22.8581 25.3971C22.9781 25.219 23.1486 25.0803 23.3479 24.9984C23.5472 24.9165 23.7665 24.8952 23.9781 24.9372C24.1896 24.9791 24.3839 25.0825 24.5363 25.2341C24.6888 25.3857 24.7925 25.5788 24.8345 25.789C24.8765 25.9992 24.8549 26.2171 24.7723 26.4151C24.6897 26.6131 24.5498 26.7823 24.3705 26.9013C24.1911 27.0204 23.9803 27.0839 23.7646 27.0839C23.4751 27.0836 23.1977 26.9692 22.9931 26.7657C22.7886 26.5623 22.6737 26.2865 22.6737 25.9989Z" fill="white"/>
<path d="M36.4057 37.0567C33.3565 37.0567 31.3372 34.5799 31.3372 30.7517C31.3372 27.5377 32.9204 25.4292 34.9635 25.4292C36.7561 25.4292 37.9917 27.0665 38.7546 30.6902H38.8164L41.4122 25.4906C39.9729 24.9787 38.0536 24.6326 36.0969 24.6326C30.8018 24.6305 26.3926 28.2549 26.3926 33.2285C26.3926 37.2412 29.3388 40.6597 33.9949 40.6597C37.7859 40.6597 40.6501 37.8347 41.4331 33.945L41.3301 33.9042C40.2795 35.9513 38.3631 37.0567 36.4057 37.0567Z" fill="white"/>
<defs>
<filter id="filter0_d_212_8365" x="0" y="6.10352e-05" width="64" height="64" filterUnits="userSpaceOnUse" color-interpolation-filters="sRGB">
<feFlood flood-opacity="0" result="BackgroundImageFix"/>
<feColorMatrix in="SourceAlpha" type="matrix" values="0 0 0 0 0 0 0 0 0 0 0 0 0 0 0 0 0 0 127 0" result="hardAlpha"/>
<feOffset/>
<feGaussianBlur stdDeviation="4"/>
<feComposite in2="hardAlpha" operator="out"/>
<feColorMatrix type="matrix" values="0 0 0 0 0.537255 0 0 0 0 0.239216 0 0 0 0 0.901961 0 0 0 0.33 0"/>
<feBlend mode="normal" in2="BackgroundImageFix" result="effect1_dropShadow_212_8365"/>
<feBlend mode="normal" in="SourceGraphic" in2="effect1_dropShadow_212_8365" result="shape"/>
</filter>
<linearGradient id="paint0_linear_212_8365" x1="32" y1="8.00006" x2="32" y2="56.0001" gradientUnits="userSpaceOnUse">
<stop stop-color="#9642FD"/>
<stop offset="1" stop-color="#7E2EE0"/>
</linearGradient>
</defs>
</svg>
